/* XPM */
static char *linux[] = {
/* columns rows colors chars-per-pixel */
"45 18 2 1 ",
"  c #2D2D2D",
". c white",
/* pixels */
"                                             ",
"            .....................            ",
"            .....................            ",
"            .....................            ",
"                                             ",
"                                             ",
"                                             ",
"            .....................            ",
"            .....................            ",
"            .....................            ",
"                                             ",
"                                             ",
"                                             ",
"            .....................            ",
"            .....................            ",
"            .....................            ",
"                                             ",
"                                             "
};
